<?xml version="1.0" encoding="utf-8"?>
<!-- Generator: Adobe Illustrator 22.0.1, SVG Export Plug-In . SVG Version: 6.00 Build 0)  -->
<svg version="1.1" id="Camada_1" xmlns="http://www.w3.org/2000/svg" xmlns:xlink="http://www.w3.org/1999/xlink" x="0px" y="0px"
	 viewBox="0 0 41 41" style="enable-background:new 0 0 41 41;" xml:space="preserve">
<style type="text/css">
	.st0{fill:#FFFFFF;}
	.st1{fill:none;stroke:#FFFFFF;stroke-miterlimit:10;}
	.st2{fill:none;stroke:#FFFFFF;stroke-linecap:round;stroke-linejoin:round;stroke-miterlimit:10;}
	.st3{fill:#FFFFFF;stroke:#FFFFFF;stroke-linecap:round;stroke-linejoin:round;stroke-miterlimit:10;}
	.st4{fill:#4CA4CE;}
</style>
<g>
	<circle class="st1" cx="20.5" cy="20.5" r="20"/>
	<path class="st0" d="M33.6,10.9c-0.1-0.1-0.2-0.2-0.3-0.2H32c-0.2,0-0.4-0.2-0.4-0.4V9.1c0-0.1-0.1-0.3-0.2-0.3
		c-0.1-0.1-0.3,0-0.4,0.1l-1.9,1.9C29,10.8,29,10.9,29,11v1.1c0,0.2,0,0.3,0.1,0.5l-1.8,1.8c-1.8-1.6-4.2-2.7-6.9-2.7
		c-2.7,0-5.2,1-7.1,2.9c-1.9,1.9-2.9,4.4-2.9,7c0,2.6,1,5.1,2.9,7c1.9,1.9,4.4,2.9,7.1,2.9c2.7,0,5.2-1,7.1-2.9c1.9-1.9,3-4.3,3-7
		c0-2.6-1-5-2.7-6.7l1.8-1.8c0.2,0.1,0.3,0.1,0.5,0.1h1.2c0.1,0,0.2,0,0.3-0.1l1.9-1.9C33.6,11.2,33.6,11,33.6,10.9z M29.8,21.7
		c0,5-4.2,9.1-9.3,9.1c-5.1,0-9.3-4.1-9.3-9.1c0-5.1,4.2-9.2,9.3-9.2c2.4,0,4.7,0.9,6.3,2.4l-2.2,2.2c-1.1-0.9-2.5-1.5-4.1-1.5
		c-1.7,0-3.2,0.6-4.4,1.8c-1.2,1.1-1.8,2.7-1.8,4.3c0,3.4,2.8,6.1,6.2,6.1c1.7,0,3.2-0.6,4.4-1.8c1.2-1.1,1.8-2.7,1.8-4.3
		c0-1.6-0.6-3-1.5-4.1l2.2-2.2C28.8,17.1,29.8,19.3,29.8,21.7z M20.5,21.6c0.1,0.1,0.2,0.1,0.3,0.1c0.1,0,0.2,0,0.3-0.1l0.9-0.9
		c0.2,0.3,0.3,0.7,0.3,1.1c0,1.1-0.9,1.9-2,1.9c-1.1,0-2-0.9-2-1.9c0-1.1,0.9-1.9,2-1.9c0.4,0,0.8,0.1,1.1,0.3l-0.9,0.9
		C20.3,21.2,20.3,21.4,20.5,21.6z M22,19.6c-0.5-0.3-1-0.5-1.6-0.5c-1.5,0-2.7,1.2-2.7,2.7c0,1.5,1.2,2.7,2.7,2.7
		c1.5,0,2.7-1.2,2.7-2.7c0-0.6-0.2-1.2-0.5-1.6l2-1.9c0.8,0.9,1.3,2.2,1.3,3.5c0,3-2.4,5.4-5.4,5.4c-3,0-5.4-2.4-5.4-5.4
		c0-3,2.4-5.4,5.4-5.4c1.4,0,2.6,0.5,3.6,1.3L22,19.6z M31,12.6h-1c-0.2,0-0.4-0.2-0.4-0.4v-1l1.2-1.1v0.3c0,0.6,0.5,1.1,1.1,1.1
		h0.3L31,12.6z"/>
</g>
</svg>
